<svg viewBox="0 0 200 200" fill="none" xmlns="http://www.w3.org/2000/svg">

  <!-- Hintergrund dunkel -->
  <rect width="200" height="200" rx="24" fill="#1a1614"/>

  <!-- C Hintergrund -->
  <path d="M178 42 A82 82 0 1 0 178 158"
        fill="none" stroke="#f5f0ea" stroke-width="38" stroke-linecap="round"
        opacity="0.04"/>

  <!-- Lichtkegel aus Laterne -->
  <path d="M114 68 L200 28 L200 108Z" fill="#c4622d" opacity="0.1"/>
  <path d="M114 68 L200 20 L200 116Z" fill="#c4622d" opacity="0.05"/>

  <!-- Sockel -->
  <path d="M72 174 Q90 171 108 172 Q126 171 144 174 L146 180 Q100 184 70 180Z"
        fill="none" stroke="#c4622d" stroke-width="1.4"/>

  <!-- Unterer Turm -->
  <path d="M76 174 L79 126 Q79 124 100 124 Q121 124 121 126 L124 174Z"
        fill="none" stroke="#c4622d" stroke-width="1.4" stroke-linejoin="round"/>
  <path d="M79.6 142 Q100 140 120.4 142" stroke="#c4622d" stroke-width="2" fill="none" opacity="0.22"/>
  <path d="M79.1 159 Q100 157 120.9 159" stroke="#c4622d" stroke-width="2" fill="none" opacity="0.22"/>

  <!-- Galerie mit Konsolen -->
  <path d="M79 126 Q82 119 88 123 Q93 126 100 125 Q107 124 112 118 Q117 114 121 119 L121 126 L79 126Z"
        fill="#c4622d" opacity="0.45"/>
  <rect x="75" y="123" width="50" height="4" rx="0.5" fill="#c4622d" opacity="0.8"/>
  <line x1="75" y1="121" x2="125" y2="121" stroke="#c4622d" stroke-width="0.8" opacity="0.35"/>
  <line x1="75" y1="119" x2="125" y2="119" stroke="#c4622d" stroke-width="0.5" opacity="0.2"/>

  <!-- Oberer Turm -->
  <path d="M84 123 L86 84 Q86 82 100 82 Q114 82 114 84 L116 123Z"
        fill="none" stroke="#c4622d" stroke-width="1.4" stroke-linejoin="round"/>
  <path d="M86.4 102 Q100 100 113.6 102" stroke="#c4622d" stroke-width="2" fill="none" opacity="0.22"/>

  <!-- Obere Plattform -->
  <rect x="81" y="80" width="38" height="4" rx="0.5" fill="#c4622d" opacity="0.8"/>
  <line x1="81" y1="78" x2="119" y2="78" stroke="#c4622d" stroke-width="0.7" opacity="0.3"/>

  <!-- Laterne -->
  <path d="M86 80 L86 60 Q86 57 100 57 Q114 57 114 60 L114 80"
        fill="none" stroke="#c4622d" stroke-width="1.3"/>
  <line x1="86" y1="69" x2="114" y2="69" stroke="#c4622d" stroke-width="0.6" opacity="0.25"/>
  <line x1="93" y1="57" x2="93" y2="80" stroke="#c4622d" stroke-width="0.5" opacity="0.2"/>
  <line x1="100" y1="57" x2="100" y2="80" stroke="#c4622d" stroke-width="0.5" opacity="0.2"/>
  <line x1="107" y1="57" x2="107" y2="80" stroke="#c4622d" stroke-width="0.5" opacity="0.2"/>

  <!-- Licht -->
  <circle cx="100" cy="68" r="7" fill="#c4622d" opacity="0.18"/>
  <circle cx="100" cy="68" r="5" fill="#c4622d" opacity="0.85"/>
  <circle cx="101.8" cy="66.2" r="2" fill="#1a1614" opacity="0.4"/>

  <!-- Kuppel -->
  <path d="M84 57 Q84 44 100 43 Q116 44 116 57Z" fill="#c4622d" opacity="0.85"/>
  <line x1="83" y1="57" x2="117" y2="57" stroke="#c4622d" stroke-width="1.4"/>

  <!-- Wetterfahne -->
  <line x1="100" y1="43" x2="100" y2="35" stroke="#c4622d" stroke-width="1.1" stroke-linecap="round"/>
  <circle cx="100" cy="43" r="2.2" fill="#c4622d"/>

</svg>
